<svg xmlns="http://www.w3.org/2000/svg" viewBox="0 0 2048 1152" role="img" aria-label="Ecommerce AI workspace hero visual">
  <defs>
    <linearGradient id="bg" x1="0" x2="1" y1="0" y2="1">
      <stop offset="0" stop-color="#f8faf7"/>
      <stop offset="0.58" stop-color="#eaf7f0"/>
      <stop offset="1" stop-color="#eef6ff"/>
    </linearGradient>
    <linearGradient id="panel" x1="0" x2="0" y1="0" y2="1">
      <stop offset="0" stop-color="#ffffff"/>
      <stop offset="1" stop-color="#f7f8f4"/>
    </linearGradient>
    <filter id="shadow" x="-20%" y="-20%" width="140%" height="140%">
      <feDropShadow dx="0" dy="24" stdDeviation="26" flood-color="#111827" flood-opacity="0.16"/>
    </filter>
  </defs>
  <rect width="2048" height="1152" fill="url(#bg)"/>
  <path d="M0 845 C330 730 520 945 850 805 C1210 652 1440 782 2048 610 L2048 1152 L0 1152 Z" fill="#ffffff" opacity="0.66"/>
  <g filter="url(#shadow)">
    <rect x="832" y="152" width="928" height="688" rx="42" fill="url(#panel)" stroke="#dbe3ea" stroke-width="3"/>
    <rect x="878" y="205" width="348" height="588" rx="28" fill="#f8faf7" stroke="#e1e7ec" stroke-width="3"/>
    <rect x="1258" y="205" width="454" height="588" rx="28" fill="#ffffff" stroke="#e1e7ec" stroke-width="3"/>
    <rect x="918" y="249" width="268" height="206" rx="24" fill="#111111"/>
    <rect x="950" y="281" width="204" height="142" rx="18" fill="#eaf8f1"/>
    <circle cx="1082" cy="332" r="38" fill="#c1fbd4"/>
    <path d="M994 412 h118 c16 0 26 -18 17 -31 l-35 -52 c-8 -12 -26 -12 -34 0 l-23 34 l-13 -19 c-8 -11 -25 -10 -32 2 l-26 43 c-8 12 1 23 28 23z" fill="#111111"/>
    <rect x="920" y="502" width="266" height="38" rx="19" fill="#e8f8ee"/>
    <rect x="920" y="564" width="210" height="24" rx="12" fill="#d9e2e7"/>
    <rect x="920" y="610" width="242" height="24" rx="12" fill="#d9e2e7"/>
    <rect x="920" y="656" width="172" height="24" rx="12" fill="#d9e2e7"/>
    <rect x="1320" y="265" width="330" height="420" rx="34" fill="#f4f5f2" stroke="#d7dde4" stroke-width="3"/>
    <ellipse cx="1485" cy="684" rx="176" ry="28" fill="#d9e2e7"/>
    <rect x="1430" y="386" width="112" height="248" rx="44" fill="#fdfcf8" stroke="#111111" stroke-width="9"/>
    <rect x="1460" y="330" width="52" height="70" rx="16" fill="#111111"/>
    <circle cx="1540" cy="456" r="18" fill="#c1fbd4"/>
    <rect x="1362" y="716" width="248" height="34" rx="17" fill="#111111"/>
  </g>
  <g opacity="0.9">
    <rect x="264" y="270" width="402" height="72" rx="36" fill="#111111"/>
    <rect x="264" y="384" width="520" height="34" rx="17" fill="#cfd8df"/>
    <rect x="264" y="438" width="420" height="34" rx="17" fill="#dbe5ea"/>
    <rect x="264" y="540" width="188" height="58" rx="29" fill="#c1fbd4"/>
    <rect x="474" y="540" width="188" height="58" rx="29" fill="#ffffff" stroke="#d9e2e7" stroke-width="3"/>
  </g>
</svg>
