<svg xmlns="http://www.w3.org/2000/svg" viewBox="0 0 1536 1024" role="img" aria-label="White background capability visual">
  <rect width="1536" height="1024" fill="#ffffff"/>
  <rect x="92" y="86" width="1352" height="852" rx="42" fill="#ffffff" stroke="#e5e9ed" stroke-width="4"/>
  <ellipse cx="768" cy="742" rx="422" ry="58" fill="#e2e8ee"/>
  <path d="M418 602 C494 410 612 312 756 312 C912 312 1054 430 1118 602 C1074 642 1012 654 930 638 C834 620 720 620 604 642 C520 658 458 644 418 602Z" fill="#111111"/>
  <path d="M510 584 C590 490 680 444 776 444 C884 444 974 494 1044 590 C962 616 878 606 796 590 C704 572 612 580 510 584Z" fill="#f8faf7"/>
  <path d="M554 602 C622 612 694 612 770 596 C852 578 930 578 1004 604" fill="none" stroke="#c1fbd4" stroke-width="24" stroke-linecap="round"/>
  <rect x="194" y="164" width="202" height="34" rx="17" fill="#111111"/>
  <rect x="194" y="220" width="300" height="24" rx="12" fill="#d5dee5"/>
</svg>
