<svg xmlns="http://www.w3.org/2000/svg" viewBox="0 0 1800 1200" role="img" aria-label="Premium ecommerce main image example">
  <defs>
    <linearGradient id="bg" x1="0" x2="1" y1="0" y2="1">
      <stop offset="0" stop-color="#f8faf7"/>
      <stop offset="0.48" stop-color="#eef8f1"/>
      <stop offset="1" stop-color="#edf6fb"/>
    </linearGradient>
    <linearGradient id="panel" x1="0" x2="0" y1="0" y2="1">
      <stop offset="0" stop-color="#ffffff"/>
      <stop offset="1" stop-color="#f4f7f2"/>
    </linearGradient>
    <linearGradient id="mint" x1="0" x2="1" y1="0" y2="1">
      <stop offset="0" stop-color="#c1fbd4"/>
      <stop offset="1" stop-color="#89dec5"/>
    </linearGradient>
    <filter id="softShadow" x="-20%" y="-20%" width="140%" height="150%">
      <feDropShadow dx="0" dy="34" stdDeviation="34" flood-color="#111827" flood-opacity="0.16"/>
    </filter>
    <filter id="tightShadow" x="-20%" y="-20%" width="140%" height="150%">
      <feDropShadow dx="0" dy="18" stdDeviation="18" flood-color="#111827" flood-opacity="0.18"/>
    </filter>
  </defs>
  <rect width="1800" height="1200" fill="url(#bg)"/>
  <path d="M0 790 C260 710 390 835 620 742 C900 628 1066 744 1298 626 C1516 515 1642 584 1800 500 L1800 1200 L0 1200 Z" fill="#ffffff" opacity="0.78"/>
  <g opacity="0.62">
    <path d="M150 146 H1620" stroke="#dfe8ec" stroke-width="3"/>
    <path d="M150 338 H1620" stroke="#dfe8ec" stroke-width="3"/>
    <path d="M150 530 H1620" stroke="#dfe8ec" stroke-width="3"/>
    <path d="M150 722 H1620" stroke="#dfe8ec" stroke-width="3"/>
    <path d="M150 914 H1620" stroke="#dfe8ec" stroke-width="3"/>
    <path d="M282 90 V1010" stroke="#e8eef1" stroke-width="3"/>
    <path d="M526 90 V1010" stroke="#e8eef1" stroke-width="3"/>
    <path d="M770 90 V1010" stroke="#e8eef1" stroke-width="3"/>
    <path d="M1014 90 V1010" stroke="#e8eef1" stroke-width="3"/>
    <path d="M1258 90 V1010" stroke="#e8eef1" stroke-width="3"/>
    <path d="M1502 90 V1010" stroke="#e8eef1" stroke-width="3"/>
  </g>
  <g filter="url(#softShadow)">
    <rect x="154" y="104" width="1492" height="912" rx="58" fill="url(#panel)" stroke="#d7e0e6" stroke-width="4"/>
  </g>
  <rect x="220" y="168" width="398" height="90" rx="45" fill="#111111"/>
  <rect x="264" y="198" width="174" height="30" rx="15" fill="#ffffff" opacity="0.88"/>
  <rect x="462" y="198" width="86" height="30" rx="15" fill="#c1fbd4"/>
  <rect x="220" y="308" width="458" height="42" rx="21" fill="#dce5ea"/>
  <rect x="220" y="376" width="326" height="34" rx="17" fill="#e6edf0"/>
  <rect x="220" y="852" width="276" height="58" rx="29" fill="#111111"/>
  <rect x="532" y="852" width="236" height="58" rx="29" fill="#ffffff" stroke="#d5dde4" stroke-width="4"/>
  <g filter="url(#tightShadow)">
    <rect x="682" y="176" width="768" height="684" rx="44" fill="#ffffff" stroke="#dde6eb" stroke-width="4"/>
    <rect x="740" y="238" width="652" height="494" rx="34" fill="#f8faf7"/>
    <circle cx="1278" cy="354" r="132" fill="url(#mint)" opacity="0.88"/>
    <ellipse cx="1068" cy="738" rx="328" ry="46" fill="#d8e1e8"/>
    <rect x="1014" y="328" width="174" height="342" rx="68" fill="#ffffff" stroke="#111111" stroke-width="14"/>
    <rect x="1048" y="238" width="104" height="124" rx="28" fill="#111111"/>
    <circle cx="1188" cy="430" r="28" fill="#c1fbd4"/>
    <rect x="812" y="546" width="246" height="160" rx="30" fill="#111111"/>
    <rect x="840" y="574" width="190" height="104" rx="22" fill="#f4f7f2"/>
    <path d="M858 672 C908 626 966 622 1014 672" fill="none" stroke="#c1fbd4" stroke-width="15" stroke-linecap="round"/>
    <rect x="804" y="774" width="314" height="46" rx="23" fill="#111111"/>
    <rect x="1152" y="774" width="208" height="46" rx="23" fill="#ffffff" stroke="#d5dde4" stroke-width="4"/>
  </g>
  <g>
    <rect x="1226" y="186" width="210" height="64" rx="32" fill="#111111"/>
    <circle cx="1272" cy="218" r="18" fill="#c1fbd4"/>
    <rect x="1308" y="204" width="86" height="22" rx="11" fill="#ffffff" opacity="0.82"/>
  </g>
  <g opacity="0.95">
    <rect x="228" y="558" width="280" height="188" rx="28" fill="#ffffff" stroke="#d7e0e6" stroke-width="4"/>
    <circle cx="292" cy="622" r="34" fill="#c1fbd4"/>
    <rect x="350" y="602" width="110" height="24" rx="12" fill="#111111"/>
    <rect x="292" y="676" width="162" height="20" rx="10" fill="#d6e0e5"/>
    <rect x="292" y="716" width="114" height="20" rx="10" fill="#d6e0e5"/>
    <rect x="530" y="558" width="248" height="188" rx="28" fill="#ffffff" stroke="#d7e0e6" stroke-width="4"/>
    <rect x="590" y="612" width="78" height="78" rx="20" fill="#111111"/>
    <circle cx="696" cy="650" r="28" fill="#c1fbd4"/>
  </g>
</svg>
