<svg xmlns="http://www.w3.org/2000/svg" viewBox="0 0 1800 1200" role="img" aria-label="Premium ecommerce detail page collage example">
  <defs>
    <linearGradient id="bg" x1="0" x2="1" y1="0" y2="1">
      <stop offset="0" stop-color="#f8faf7"/>
      <stop offset="0.55" stop-color="#eef8f1"/>
      <stop offset="1" stop-color="#edf6fb"/>
    </linearGradient>
    <linearGradient id="paper" x1="0" x2="0" y1="0" y2="1">
      <stop offset="0" stop-color="#ffffff"/>
      <stop offset="1" stop-color="#f7faf6"/>
    </linearGradient>
    <linearGradient id="mint" x1="0" x2="1" y1="0" y2="1">
      <stop offset="0" stop-color="#c1fbd4"/>
      <stop offset="1" stop-color="#8ee4d0"/>
    </linearGradient>
    <filter id="softShadow" x="-20%" y="-20%" width="140%" height="150%">
      <feDropShadow dx="0" dy="30" stdDeviation="32" flood-color="#111827" flood-opacity="0.14"/>
    </filter>
  </defs>
  <rect width="1800" height="1200" fill="url(#bg)"/>
  <g opacity="0.55">
    <path d="M130 132 H1670" stroke="#dfe8ec" stroke-width="3"/>
    <path d="M130 348 H1670" stroke="#dfe8ec" stroke-width="3"/>
    <path d="M130 564 H1670" stroke="#dfe8ec" stroke-width="3"/>
    <path d="M130 780 H1670" stroke="#dfe8ec" stroke-width="3"/>
    <path d="M130 996 H1670" stroke="#dfe8ec" stroke-width="3"/>
    <path d="M392 80 V1080" stroke="#e8eef1" stroke-width="3"/>
    <path d="M704 80 V1080" stroke="#e8eef1" stroke-width="3"/>
    <path d="M1016 80 V1080" stroke="#e8eef1" stroke-width="3"/>
    <path d="M1328 80 V1080" stroke="#e8eef1" stroke-width="3"/>
  </g>
  <g filter="url(#softShadow)">
    <rect x="188" y="92" width="1424" height="1000" rx="58" fill="url(#paper)" stroke="#d7e0e6" stroke-width="4"/>
  </g>
  <rect x="260" y="160" width="372" height="78" rx="39" fill="#111111"/>
  <rect x="304" y="186" width="164" height="24" rx="12" fill="#ffffff" opacity="0.9"/>
  <rect x="492" y="186" width="80" height="24" rx="12" fill="#c1fbd4"/>
  <rect x="260" y="282" width="476" height="36" rx="18" fill="#d9e2e7"/>
  <rect x="260" y="338" width="342" height="28" rx="14" fill="#e7edf0"/>
  <g>
    <rect x="840" y="148" width="604" height="320" rx="38" fill="#eef8f1" stroke="#d7e0e6" stroke-width="4"/>
    <path d="M1088 222 C1014 270 972 356 984 430 H1288 C1298 356 1250 270 1176 222 C1164 258 1100 258 1088 222Z" fill="#111111"/>
    <rect x="1038" y="394" width="198" height="30" rx="15" fill="#c1fbd4"/>
  </g>
  <g>
    <rect x="260" y="454" width="432" height="282" rx="34" fill="#ffffff" stroke="#d7e0e6" stroke-width="4"/>
    <circle cx="360" cy="554" r="48" fill="url(#mint)"/>
    <rect x="430" y="520" width="170" height="30" rx="15" fill="#111111"/>
    <rect x="430" y="576" width="204" height="22" rx="11" fill="#d9e2e7"/>
    <rect x="322" y="650" width="248" height="42" rx="21" fill="#111111"/>
  </g>
  <g>
    <rect x="738" y="520" width="314" height="216" rx="34" fill="#ffffff" stroke="#d7e0e6" stroke-width="4"/>
    <rect x="810" y="586" width="92" height="92" rx="24" fill="#111111"/>
    <circle cx="942" cy="632" r="34" fill="#c1fbd4"/>
    <rect x="810" y="700" width="172" height="20" rx="10" fill="#d9e2e7"/>
  </g>
  <g>
    <rect x="1098" y="520" width="346" height="216" rx="34" fill="#ffffff" stroke="#d7e0e6" stroke-width="4"/>
    <circle cx="1182" cy="620" r="38" fill="#c1fbd4"/>
    <circle cx="1278" cy="620" r="38" fill="#d7eefc"/>
    <circle cx="1374" cy="620" r="38" fill="#111111"/>
    <rect x="1182" y="690" width="192" height="22" rx="11" fill="#d9e2e7"/>
  </g>
  <g>
    <rect x="260" y="800" width="1184" height="188" rx="36" fill="#111111"/>
    <rect x="328" y="858" width="268" height="30" rx="15" fill="#c1fbd4"/>
    <rect x="328" y="918" width="456" height="20" rx="10" fill="#ffffff" opacity="0.55"/>
    <rect x="934" y="846" width="172" height="74" rx="26" fill="#ffffff" opacity="0.14"/>
    <rect x="1142" y="846" width="172" height="74" rx="26" fill="#ffffff" opacity="0.14"/>
    <rect x="1210" y="868" width="38" height="30" rx="8" fill="#c1fbd4"/>
  </g>
</svg>
